<?xml version="1.0" standalone="no"?>
<!DOCTYPE svg PUBLIC "-//W3C//DTD SVG 20010904//EN"
 "http://www.w3.org/TR/2001/REC-SVG-20010904/DTD/svg10.dtd">
<svg version="1.0" xmlns="http://www.w3.org/2000/svg"
 width="700.000000pt" height="700.000000pt" viewBox="0 0 700.000000 700.000000"
 preserveAspectRatio="xMidYMid meet">
<metadata>
Created by potrace 1.14, written by Peter Selinger 2001-2017
</metadata>
<g transform="translate(0.000000,700.000000) scale(0.100000,-0.100000)"
fill="#000000" stroke="none">
<path d="M3370 6899 c-184 -20 -344 -151 -394 -323 -14 -45 -14 -45 -101 -22
-216 58 -438 -46 -534 -249 -17 -36 -31 -69 -31 -73 0 -5 -24 15 -54 44 -241
234 -637 142 -759 -176 -27 -69 -33 -193 -12 -265 26 -94 26 -94 -30 -113
-116 -40 -218 -129 -268 -236 -38 -79 -47 -127 -43 -231 3 -80 7 -99 40 -168
59 -122 155 -206 289 -251 14 -4 9 -13 -28 -47 -125 -115 -174 -324 -114 -486
53 -142 153 -240 292 -288 l55 -18 -14 -41 c-99 -279 73 -569 366 -617 64 -11
70 -14 64 -33 -16 -55 -171 -353 -235 -451 -59 -90 -147 -213 -169 -235 -3 -3
-20 -23 -39 -45 -329 -390 -813 -689 -1374 -851 -67 -19 -123 -37 -126 -40 -6
-6 36 -93 107 -219 245 -437 582 -805 1010 -1103 56 -40 105 -72 107 -72 3 0
28 -15 57 -34 63 -40 254 -141 285 -150 17 -5 23 -3 23 8 0 23 77 268 121 385
82 217 229 493 351 660 251 341 589 626 955 804 l73 35 37 -35 c87 -80 206
-118 345 -111 l90 6 52 -49 c78 -76 174 -117 283 -123 l58 -4 6 -58 c13 -133
74 -254 162 -326 37 -31 167 -104 167 -94 0 2 24 -2 53 -9 141 -32 314 25 418
137 l36 39 18 -48 c51 -135 166 -242 305 -284 66 -20 162 -21 234 -5 203 48
347 220 359 431 3 48 4 50 33 51 216 7 396 147 449 349 40 156 -1 315 -111
432 l-53 57 57 24 c112 47 194 128 244 239 21 48 38 75 52 79 102 30 220 129
269 225 44 89 64 223 44 309 -19 81 -82 203 -116 225 -8 4 -2 19 17 43 116
151 139 330 63 495 -52 114 -172 220 -282 248 -38 10 -48 16 -43 28 75 186 37
379 -100 516 -57 57 -154 115 -191 115 -22 0 -20 4 36 62 91 95 130 199 126
336 -3 98 -22 159 -75 240 -113 174 -337 251 -533 184 l-55 -20 -14 47 c-29
103 -128 224 -224 273 -55 28 -132 50 -191 53 -27 2 -53 4 -57 4 -4 1 -6 16
-4 34 5 50 -31 176 -67 235 -57 96 -183 192 -272 208 -16 3 -33 7 -37 10 -16
10 -158 5 -201 -7 -63 -16 -119 -44 -171 -84 l-46 -35 -52 39 c-81 62 -147 84
-260 87 -76 3 -110 -1 -154 -16 -58 -20 -74 -19 -74 6 0 42 -63 149 -122 207
-106 106 -235 152 -378 136z"/>
</g>
</svg>
